<?xml version="1.0" encoding="utf-8"?>
<!-- Generator: Adobe Illustrator 24.1.2, SVG Export Plug-In . SVG Version: 6.00 Build 0)  -->
<svg version="1.1" id="Ebene_1" xmlns="http://www.w3.org/2000/svg" xmlns:xlink="http://www.w3.org/1999/xlink" x="0px" y="0px"
	 viewBox="0 0 51 51" enable-background="new 0 0 51 51" xml:space="preserve">
<desc>Created with Sketch.</desc>
<path fill="#AD9963" d="M28.1,5.3c-0.6,0-1.2,0.3-1.5,0.8l-7.9,12.2L2,19.3c-0.8,0.1-1.4,0.6-1.6,1.3v0.2c-0.1,0.7,0.1,1.3,0.6,1.7
	l9.5,6.7L1.3,42.7c-0.5,0.7-0.4,1.6,0.2,2.2c0.3,0.3,0.8,0.5,1.2,0.5h0.2c0.3,0,0.6-0.1,0.9-0.3L22,33.2h0.2c0.6,0,1.2,0.1,2,0.2
	c1.5,0.2,2.9,0.6,4.5,1.1c1,0.3,1.9,0.7,2.8,1.1c1.1,0.5,2.2,0.9,3.1,1.4l0.5,0.2l0.4,0.2l0,0l0.7,0.4c0.6,0.4,1.4,0.3,2-0.2
	l0.1-0.1c0.4-0.5,0.6-1.1,0.4-1.8l-2.8-9l13.7-7.1c0.7-0.4,1.1-1.2,0.9-2v-0.2c-0.2-0.7-0.8-1.2-1.6-1.2l-15.2,0.2L29.8,6.1L29.7,6
	c-0.2-0.5-0.7-0.9-1.3-1h-0.1L28.1,5.3z"/>
</svg>
