<svg class="logo logo-park" data-name="Layer 1" xmlns="http://www.w3.org/2000/svg" viewBox="0 0 186.87 71"><path class="f2c702b4-a264-44c8-b5eb-e81c96dc25f6" d="M60.37 37.51h-.28c-2.8 0-3.52 3.15-3.52 6.82s.72 6.82 3.52 6.82h.28c-2.56-.22-3.26-3.24-3.26-6.78s.7-6.64 3.26-6.86z"/><path class="f2c702b4-a264-44c8-b5eb-e81c96dc25f6" d="M60.64 34.28h-.27c5.89.13 7.67 4.43 7.67 10s-1.78 9.87-7.67 10h.27c6.12 0 8-4.37 8-10s-1.88-10-8-10zM40.35 45.81v4.45h.55v-4.45zM40.34 42.62h.55v-5.13h-.55z"/><path class="abc43d2c-0832-4ce3-bbb7-eba8cad093b8" d="M41.52 50.26h.54v3.48h-.54z"/><path class="f2c702b4-a264-44c8-b5eb-e81c96dc25f6" d="M48.78 47.36a5.81 5.81 0 00-1.37-2.84 3.84 3.84 0 00-.82-.57 4.3 4.3 0 002.7-4.34c0-3.52-2.25-5.33-6.42-5.33h-.55c4.18 0 6.37 1.81 6.43 5.33a4.3 4.3 0 01-2.7 4.39 4.41 4.41 0 01.82.57 5.81 5.81 0 011.37 2.84c.33 1.24.39 3.12 2.46 3v3.33h.54v-3.33c-2.07.07-2.13-1.81-2.46-3.05zM92.35 39.73l-.27-.94-1.66 5.73h.54l1.39-4.79zM88.59 50.26h.54l.77-2.39h-.54l-.77 2.39zM100.35 50.26l-5.48-15.98h-.54l5.48 15.98h.54z"/><path class="abc43d2c-0832-4ce3-bbb7-eba8cad093b8" d="M101.22 50.26h.54v3.48h-.54zM90.02 50.26h.54v3.48h-.54zM75.77 37.48h.54v5.19h-.54zM75.77 45.85h.54v4.4h-.54zM77.63 50.26h.54v3.48h-.54z"/><path class="f2c702b4-a264-44c8-b5eb-e81c96dc25f6" d="M76.34 34.28h-.54c4.52 0 8.07.6 8.07 5.91 0 4.1-3.33 5.66-6.94 5.66h.54c3.61 0 6.94-1.56 6.94-5.66 0-5.31-3.54-5.91-8.07-5.91z"/><path class="abc43d2c-0832-4ce3-bbb7-eba8cad093b8" d="M6.23 45.34h.54v5.03h-.54zM14.8 39.13l-.36-4.85h-.54l.35 4.85h.55zM6.23 37.63h.54v4.36h-.54zM14.45 48.69l-.52 5.04h.55l.51-5.04h-.54zM10.56 41.99h.54v3.35h-.54zM175.74 41.5v.66l3.74-4.53h-.43v-3.35h-.55v3.35h.44l-3.2 3.87zM171.09 37.63h.54v12.74h-.54zM180.21 50.37l-4.47-5.78v.71l3.92 5.07h.55zM169.8 34.28h.55v3.35h-.55zM178.97 50.37h.54v3.36h-.54zM169.8 50.37h.55v3.36h-.55z"/><path class="f2c702b4-a264-44c8-b5eb-e81c96dc25f6" d="M126.94 37.48h-.55c1.93 0 2.84.79 2.84 2.55 0 1.57-.93 2.63-2.84 2.63h.54c1.91 0 2.85-1.06 2.85-2.63 0-1.76-.92-2.55-2.84-2.55z"/><path class="abc43d2c-0832-4ce3-bbb7-eba8cad093b8" d="M121.15 37.64h.54v12.62h-.54zM119.52 50.26h.54v3.48h-.54z"/><path class="f2c702b4-a264-44c8-b5eb-e81c96dc25f6" d="M120.06 37.64l-.01-3.38-.53.02v3.36h.54zM145.45 50.37l-.77-2.51h-.55l.78 2.51h.54zM141.95 38.78l-.27.94 1.4 4.79h.54l-1.67-5.73z"/><path class="abc43d2c-0832-4ce3-bbb7-eba8cad093b8" d="M132.52 50.37h.54v3.36h-.54zM143.73 50.37h.54v3.36h-.54z"/><path class="f2c702b4-a264-44c8-b5eb-e81c96dc25f6" d="M139.73 34.28h-.54l-5.5 16.09h.54l5.5-16.09zM162.64 40a2.16 2.16 0 00-2.28-2.48h-.54A2.16 2.16 0 01162.1 40c0 2.44-1.7 2.64-3.7 2.65 2.23-.03 4.24-.02 4.24-2.65z"/><path class="abc43d2c-0832-4ce3-bbb7-eba8cad093b8" d="M153.75 37.63h.54v12.74h-.54z"/><path class="f2c702b4-a264-44c8-b5eb-e81c96dc25f6" d="M162.43 48.84a9.15 9.15 0 00-.66-2 2.57 2.57 0 00-2.38-1h-.54a2.56 2.56 0 012.37 1 9.2 9.2 0 01.67 2c.75 2.73 2.44 4.9 5.35 4.9h.55c-2.92 0-4.61-2.17-5.36-4.9z"/><path class="abc43d2c-0832-4ce3-bbb7-eba8cad093b8" d="M152.11 34.28h.54v3.35h-.54zM152.11 50.37h.54v3.36h-.54z"/><path class="f2c702b4-a264-44c8-b5eb-e81c96dc25f6" d="M56 44.29c0 3.67.73 6.81 3.53 6.81s3.53-3.14 3.53-6.81-.75-6.82-3.53-6.82S56 40.62 56 44.29zm3.53 10c-6.15 0-7.94-4.38-7.94-10s1.79-10 7.94-10 7.95 4.36 7.95 10-1.82 10-7.95 10zM39.79 37.49v5.13C42 42.62 44 42.63 44 40a2.16 2.16 0 00-2.28-2.48zm10.36 16.25H48.7c-2.92 0-4.12-2.17-4.87-4.9a9 9 0 00-.67-2 2.56 2.56 0 00-2.37-1h-1v4.44H41v3.48h-6.95v-3.51h1.64V37.63h-1.64v-3.35h7.72c4.18 0 6.37 1.81 6.42 5.33a4.28 4.28 0 01-2.7 4.39 3.5 3.5 0 01.82.57 5.69 5.69 0 011.37 2.84c.34 1.23.4 3.12 2.47 3v3.33z"/><path class="abc43d2c-0832-4ce3-bbb7-eba8cad093b8" d="M23.25 50.31a2.42 2.42 0 01-.83-1.37 5.67 5.67 0 01-.15-1.36v-9.95h-.55v9.95a6.23 6.23 0 00.15 1.36 2.53 2.53 0 00.83 1.37 2.9 2.9 0 001.83.51h.17a2.72 2.72 0 01-1.45-.51zM23.11 34.28h.54v3.35h-.54zM31.41 47.6c0 5.4-4.11 6.4-6.6 6.4h.27c2.44 0 6.92-.82 6.92-6.4v-10h-.54zM32.96 34.28h.54v3.35h-.54z"/><path class="abc43d2c-0832-4ce3-bbb7-eba8cad093b8" d="M26.76 37.63h-1.13v-3.35h6.78v3.35h-1.55v10c0 5.55-4.44 6.37-6.86 6.37-2.26 0-6.91-.81-6.91-6.42v-10h-1.64v-3.3h7.11v3.35h-1.39v9.95a6.23 6.23 0 00.15 1.36 2.48 2.48 0 00.83 1.37 2.9 2.9 0 001.83.51 2.92 2.92 0 002-.68 3.65 3.65 0 00.79-2.56v-9.94z"/><path class="f2c702b4-a264-44c8-b5eb-e81c96dc25f6" d="M89.86 44.51h3.34l-1.67-5.72-1.67 5.72zm10.81 5.74v3.48h-6.82v-3.48H95l-.78-2.38h-5.41L88 50.25h1.43v3.48h-6.78v-3.48h1.16l5.5-16h4.47l5.48 16h1.41zM75.22 37.47v5.19h1.14c1.91 0 2.85-1.06 2.85-2.63 0-1.76-.92-2.56-2.84-2.56zm-5.73-3.19h5.76c4.52 0 8.06.6 8.06 5.9 0 4.11-3.32 5.67-6.94 5.67h-1.15v4.4h1.86v3.48h-7.59v-3.48h1.63V37.64h-1.63v-3.36z"/><path class="abc43d2c-0832-4ce3-bbb7-eba8cad093b8" d="M9.97 50.37H5.68v-5.03h4.33v-3.35H5.68v-4.36h4.3l.36 1.5h3.36l-.35-4.85H.15v3.35h1.43v12.74H.15v3.36h13.23l.52-5.04h-3.58l-.35 1.68zM185.72 50.37l-5.38-6.81 5.07-5.93h.76v-3.35h-6.57v3.35h.43l-3.74 4.53v-4.53h1.38v-3.35h-6.77v3.35h1.29v12.74h-1.29v3.36h6.92v-3.36h-1.53v-5.78l4.47 5.78h-.7v3.36h6.67v-3.36h-1.01z"/><path class="f2c702b4-a264-44c8-b5eb-e81c96dc25f6" d="M126.34 37.47v5.19h1.14c1.91 0 2.85-1.06 2.85-2.63 0-1.76-.92-2.56-2.84-2.56zm-5.73-3.19h5.76c4.52 0 8.07.6 8.07 5.9 0 4.11-3.33 5.67-7 5.67h-1.15v4.52h1.86v3.36h-7.59v-3.48h1.63V37.64h-1.63v-3.36zM140.84 44.51h3.33l-1.67-5.73-1.66 5.73zm10.8 5.85v3.36h-6.82v-3.36H146l-.77-2.5h-5.45l-.77 2.5h1.43v3.36h-6.82v-3.36h1.16l5.5-16.08h4.47l5.48 16.08zM159 37.49v5.13c2.23 0 4.24 0 4.24-2.65a2.16 2.16 0 00-2.28-2.48zm10.3 16.25h-1c-2.91 0-4.61-2.17-5.35-4.9a9.57 9.57 0 00-.67-2 2.58 2.58 0 00-2.38-1h-1v4.56h1.17v3.36h-6.92v-3.39h1.63V37.63h-1.63v-3.35h7.72c4.17 0 6.37 1.81 6.42 5.33a4.31 4.31 0 01-2.7 4.34 3.5 3.5 0 01.82.57 5.77 5.77 0 011.37 2.84c.33 1.23.39 3.12 2.46 3v3.33z"/><path class="abc43d2c-0832-4ce3-bbb7-eba8cad093b8" d="M124.92 25c.09-.19.18-.39.28-.59-.77.26-1.65.54-2.48.8a50.14 50.14 0 004.39-5.51c-.2 2.73-1.91 5.82-3.19 8.32 2.45-1.43 5.11-2.64 7.26-4.48h.14c1.58.51 3.77 1.29 4.62 2.15l.5.5-.09-.69a7.57 7.57 0 00-1.77-3.33l-.07-.1h-.58c.13.19.28.38.28.38a9.4 9.4 0 011.5 2.46 17.57 17.57 0 00-4.12-1.78 11.76 11.76 0 001.41-1.44 31.21 31.21 0 018.63.82 14.36 14.36 0 00-5.73-3.36 51.39 51.39 0 013.9-3.63c-2.11.89-4 1.91-5.91 2.65a13.2 13.2 0 01-5.86 1 2.27 2.27 0 01-.87-.24 51.51 51.51 0 01-5.34 6.65l-.65.66.83-.24c.93-.32 2-.65 2.92-1zM152.39 17l-.51.53.46.19.4-.4c2-2.14 3.7-3.9 7.14-5a19.88 19.88 0 00-2.12.41l-.28.08a18.71 18.71 0 00-5.09 4.19z"/><path class="abc43d2c-0832-4ce3-bbb7-eba8cad093b8" d="M151.84 18.22l.15-.16c-.17-.06-.46-.19-.46-.19a20.3 20.3 0 01-3.67-1.87 18.52 18.52 0 004.75-1.66 10.68 10.68 0 011.2-.53h.08v-.08a16.23 16.23 0 014.41-4.89 14.36 14.36 0 00-1.42 3.25l-.11.4.83-.24a18 18 0 014.37-.56h.18l1.15-.24a3.12 3.12 0 00-.52-.12l-.31-.05h-.78a25.11 25.11 0 00-4.09.18 13.32 13.32 0 011.74-3.32l.73-1-1 .67a17.32 17.32 0 00-4.4 4 15.37 15.37 0 01-3.56-4.55 17.66 17.66 0 00-.25 6.3 14.47 14.47 0 01-8.21.75 18.83 18.83 0 009.17 4zM112.9 35.59c.13.47.25.85.3 1a37 37 0 00-4.6-1.52h-.07l-4.93 2.09-2.26 1.43c2.46-1 7.12-3 7.23-3a39 39 0 014.9 1.65l.45.17-.45-1.54z"/><path class="abc43d2c-0832-4ce3-bbb7-eba8cad093b8" d="M120.48 29.22L118.6 29l-.46.27.84.12-6 2.52-.31-.64a32.74 32.74 0 006.6-3.46 50.6 50.6 0 01-7.26.35l-1.67-4.67-3.47 5.3-7.34.59 4.63 3.08L100 39l7.82-5.16a14 14 0 016.36 1.89 17.2 17.2 0 00-1.05-3.39z"/></svg>