<?xml version="1.0" encoding="utf-8"?>
<!-- Generator: Adobe Illustrator 22.0.1, SVG Export Plug-In . SVG Version: 6.00 Build 0)  -->
<svg version="1.1" id="Ebene_1" xmlns="http://www.w3.org/2000/svg" xmlns:xlink="http://www.w3.org/1999/xlink" x="0px" y="0px"
	 viewBox="0 0 30 30" style="enable-background:new 0 0 30 30;" xml:space="preserve">
<style type="text/css">
	.st0{fill:#666666;}
</style>
<g>
	<path class="st0" d="M19.8,22.3c0.2,0.8,0.4,1.4,0.4,1.5c-2.1-0.8-4.5-1.7-7-2.3l-0.1,0c0,0-4.2,1.8-7.6,3.2L4,25.8
		c3.7-1.6,9.2-3.9,9.3-3.9c2.6,0.6,5.1,1.6,7.2,2.4l0.3,0.1c0,0-0.2-0.8-0.6-1.9C20.1,22.4,20,22.3,19.8,22.3z"/>
	<path class="st0" d="M30,12.9l-2.7-0.4l-0.5,0.3c0,0,1.5,0.2,1.9,0.3c-0.8,0.3-6.4,2.7-9,3.8c-0.2-0.4-0.4-0.8-0.6-1.2
		c1.9-0.5,6.7-3.1,9.6-5.1c-3.7,0.4-8.2,0.7-10.6,0.5l-2.4-6.8L10.7,12L0,12.9l6.8,4.5l-6,9.6l11.4-7.5c4,0.1,6.8,1.5,9.3,2.8
		c-0.3-1.7-0.8-3.4-1.6-5C22.7,16,30,12.9,30,12.9z"/>
</g>
</svg>
