<svg xmlns="http://www.w3.org/2000/svg" viewBox="0 0 220.71 220.71"><defs><style>.cls-1,.cls-3{fill:#fffef9;}.cls-2{fill:none;stroke:#fffef9;stroke-width:5.46px;}.cls-2,.cls-3{stroke-miterlimit:10;}.cls-3{stroke:#fff;stroke-width:10px;}</style></defs><g id="objects"><polygon class="cls-1" points="201.73 110.36 142.42 118.97 189.48 156.07 133.82 133.82 156.07 189.48 118.97 142.42 110.36 201.73 101.75 142.42 64.64 189.48 86.89 133.82 31.23 156.07 78.29 118.97 18.98 110.36 78.29 101.75 31.23 64.64 86.89 86.89 64.64 31.23 101.75 78.29 110.36 18.98 118.97 78.29 156.07 31.23 133.82 86.89 189.48 64.64 142.42 101.75 201.73 110.36"/><polygon class="cls-2" points="201.73 110.36 142.42 118.97 189.48 156.07 133.82 133.82 156.07 189.48 118.97 142.42 110.36 201.73 101.75 142.42 64.64 189.48 86.89 133.82 31.23 156.07 78.29 118.97 18.98 110.36 78.29 101.75 31.23 64.64 86.89 86.89 64.64 31.23 101.75 78.29 110.36 18.98 118.97 78.29 156.07 31.23 133.82 86.89 189.48 64.64 142.42 101.75 201.73 110.36"/><circle class="cls-3" cx="400" cy="400" r="62.28" transform="translate(-372.49 405.08) rotate(-76.4)"/></g></svg>